<svg width="186" height="186" viewBox="0 0 186 186" fill="none" xmlns="http://www.w3.org/2000/svg">
<g clip-path="url(#clip0)">
<rect width="186" height="186" fill="#F99A43"/>
<rect x="102" y="40.5239" width="77.9997" height="81.0949" fill="#457B9D"/>
<ellipse cx="141" cy="121.619" rx="38.9999" ry="10.5238" fill="#457B9D"/>
<path fill-rule="evenodd" clip-rule="evenodd" d="M142.857 132.131C163.534 131.869 180 127.263 180 121.619V40.524H142.857V132.131Z" fill="#1D3557"/>
<ellipse cx="141" cy="40.5238" rx="38.9999" ry="10.5238" fill="#8ECAE6"/>
<ellipse cx="140.69" cy="40.5238" rx="29.4046" ry="7.42854" fill="#2A9D8F"/>
<path d="M146.876 114.99C146.203 114.317 146.204 113.228 146.876 112.556L150.526 108.907C151.197 108.235 152.286 108.234 152.959 108.907C153.631 109.579 153.631 110.668 152.959 111.34L149.309 114.99C148.637 115.662 147.548 115.662 146.876 114.99Z" fill="white" fill-opacity="0.5"/>
<path d="M142.009 110.123C141.337 109.45 141.337 108.361 142.009 107.69L145.659 104.04C146.331 103.368 147.42 103.367 148.092 104.04C148.765 104.712 148.764 105.801 148.092 106.473L144.442 110.123C143.77 110.795 142.681 110.795 142.009 110.123Z" fill="white" fill-opacity="0.5"/>
<path d="M137.143 105.256C136.47 104.584 136.471 103.495 137.143 102.823L140.793 99.1732C141.464 98.5014 142.553 98.5007 143.226 99.1732C143.898 99.8456 143.898 100.935 143.226 101.606L139.576 105.256C138.904 105.928 137.815 105.929 137.143 105.256Z" fill="white" fill-opacity="0.5"/>
<path d="M132.276 100.39C131.604 99.7175 131.604 98.6285 132.276 97.9566L135.926 94.3067C136.598 93.6349 137.687 93.6343 138.359 94.3067C139.032 94.9792 139.031 96.0682 138.359 96.74L134.709 100.39C134.037 101.062 132.948 101.062 132.276 100.39Z" fill="white" fill-opacity="0.5"/>
<path d="M124.976 93.0901C124.304 92.4177 124.304 91.3286 124.976 90.6568L128.626 87.0069C129.298 86.3351 130.387 86.3345 131.059 87.0069C131.732 87.6794 131.731 88.7684 131.059 89.4402L127.41 93.0901C126.738 93.7619 125.649 93.7625 124.976 93.0901Z" fill="white" fill-opacity="0.5"/>
<path d="M120.11 88.2234C119.437 87.551 119.438 86.4619 120.11 85.7901L123.759 82.1402C124.431 81.4684 125.52 81.4678 126.193 82.1402C126.865 82.8127 126.865 83.9017 126.193 84.5735L122.543 88.2234C121.871 88.8952 120.782 88.8958 120.11 88.2234Z" fill="white" fill-opacity="0.5"/>
<path d="M161.475 105.256C160.806 105.926 160.806 107.021 161.475 107.69C162.145 108.359 162.145 109.454 161.475 110.123L156.609 114.99C155.94 115.659 154.845 115.659 154.176 114.99L120.11 80.9238C119.441 80.2546 119.441 79.1596 120.11 78.4905L124.976 73.6239C125.646 72.9548 126.741 72.9548 127.41 73.6239C128.079 74.2931 129.174 74.2931 129.843 73.6239C130.512 72.9548 130.512 71.8598 129.843 71.1907C129.174 70.5215 129.174 69.4266 129.843 68.7574L133.493 65.1075C134.162 64.4384 135.257 64.4384 135.926 65.1075L169.992 99.1733C170.661 99.8424 170.661 100.937 169.992 101.607L166.342 105.256C165.673 105.926 164.578 105.926 163.909 105.256C163.24 104.587 162.145 104.587 161.475 105.256Z" fill="#8ECAE6"/>
<path d="M143.226 82.1405L137.143 88.2236C136.473 88.8928 135.378 88.8928 134.709 88.2236L129.843 83.3571C129.174 82.688 129.174 81.593 129.843 80.9238L135.926 74.8407C136.595 74.1715 137.69 74.1715 138.359 74.8407L143.226 79.7072C143.895 80.3763 143.895 81.4713 143.226 82.1405Z" fill="white" fill-opacity="0.5"/>
<path d="M160.259 99.1733L154.176 105.256C153.506 105.926 152.412 105.926 151.742 105.256L138.359 91.8735C137.69 91.2043 137.69 90.1093 138.359 89.4402L144.443 83.357C145.112 82.6879 146.207 82.6879 146.876 83.357L160.259 96.74C160.928 97.4091 160.928 98.5041 160.259 99.1733Z" fill="white" fill-opacity="0.5"/>
<path d="M13.4238 120.78H27.5742V124H9.46582V94.1406H13.4238V120.78ZM45.1699 124C44.9512 123.562 44.7734 122.783 44.6367 121.662C42.873 123.494 40.7676 124.41 38.3203 124.41C36.1328 124.41 34.335 123.795 32.9268 122.564C31.5322 121.32 30.835 119.748 30.835 117.848C30.835 115.537 31.71 113.746 33.46 112.475C35.2236 111.189 37.6982 110.547 40.8838 110.547H44.5752V108.804C44.5752 107.478 44.1787 106.425 43.3857 105.646C42.5928 104.853 41.4238 104.456 39.8789 104.456C38.5254 104.456 37.3906 104.798 36.4746 105.481C35.5586 106.165 35.1006 106.992 35.1006 107.963H31.2861C31.2861 106.855 31.6758 105.789 32.4551 104.764C33.248 103.725 34.3145 102.904 35.6543 102.303C37.0078 101.701 38.4912 101.4 40.1045 101.4C42.6611 101.4 44.6641 102.043 46.1133 103.328C47.5625 104.6 48.3145 106.356 48.3691 108.599V118.812C48.3691 120.849 48.6289 122.469 49.1484 123.672V124H45.1699ZM38.874 121.108C40.0635 121.108 41.1914 120.801 42.2578 120.186C43.3242 119.57 44.0967 118.771 44.5752 117.786V113.233H41.6016C36.9531 113.233 34.6289 114.594 34.6289 117.314C34.6289 118.504 35.0254 119.434 35.8184 120.104C36.6113 120.773 37.6299 121.108 38.874 121.108ZM57.8848 120.903H70.8662V124H53.25V121.211L65.4932 104.948H53.4346V101.811H70.251V104.497L57.8848 120.903ZM82.4121 118.442L87.5801 101.811H91.6406L82.7197 127.425C81.3389 131.116 79.1445 132.962 76.1367 132.962L75.4189 132.9L74.0039 132.634V129.558L75.0293 129.64C76.3145 129.64 77.3125 129.38 78.0234 128.86C78.748 128.341 79.3428 127.391 79.8076 126.01L80.6484 123.754L72.7324 101.811H76.875L82.4121 118.442ZM31.4297 163.525C31.0605 166.684 29.8916 169.124 27.9229 170.847C25.9678 172.556 23.3633 173.41 20.1094 173.41C16.582 173.41 13.752 172.146 11.6191 169.616C9.5 167.087 8.44043 163.703 8.44043 159.465V156.594C8.44043 153.818 8.93262 151.378 9.91699 149.272C10.915 147.167 12.3232 145.554 14.1416 144.433C15.96 143.298 18.0654 142.73 20.458 142.73C23.6299 142.73 26.1729 143.619 28.0869 145.396C30.001 147.16 31.1152 149.607 31.4297 152.738H27.4717C27.1299 150.359 26.3848 148.637 25.2363 147.57C24.1016 146.504 22.5088 145.971 20.458 145.971C17.9424 145.971 15.9668 146.9 14.5312 148.76C13.1094 150.619 12.3984 153.265 12.3984 156.696V159.588C12.3984 162.828 13.0752 165.405 14.4287 167.319C15.7822 169.233 17.6758 170.19 20.1094 170.19C22.2969 170.19 23.9717 169.698 25.1338 168.714C26.3096 167.716 27.0889 165.986 27.4717 163.525H31.4297ZM49.9277 173C49.709 172.562 49.5312 171.783 49.3945 170.662C47.6309 172.494 45.5254 173.41 43.0781 173.41C40.8906 173.41 39.0928 172.795 37.6846 171.564C36.29 170.32 35.5928 168.748 35.5928 166.848C35.5928 164.537 36.4678 162.746 38.2178 161.475C39.9814 160.189 42.4561 159.547 45.6416 159.547H49.333V157.804C49.333 156.478 48.9365 155.425 48.1436 154.646C47.3506 153.853 46.1816 153.456 44.6367 153.456C43.2832 153.456 42.1484 153.798 41.2324 154.481C40.3164 155.165 39.8584 155.992 39.8584 156.963H36.0439C36.0439 155.855 36.4336 154.789 37.2129 153.764C38.0059 152.725 39.0723 151.904 40.4121 151.303C41.7656 150.701 43.249 150.4 44.8623 150.4C47.4189 150.4 49.4219 151.043 50.8711 152.328C52.3203 153.6 53.0723 155.356 53.127 157.599V167.812C53.127 169.849 53.3867 171.469 53.9062 172.672V173H49.9277ZM43.6318 170.108C44.8213 170.108 45.9492 169.801 47.0156 169.186C48.082 168.57 48.8545 167.771 49.333 166.786V162.233H46.3594C41.7109 162.233 39.3867 163.594 39.3867 166.314C39.3867 167.504 39.7832 168.434 40.5762 169.104C41.3691 169.773 42.3877 170.108 43.6318 170.108ZM67.9746 170.313C69.3281 170.313 70.5107 169.903 71.5225 169.083C72.5342 168.263 73.0947 167.237 73.2041 166.007H76.793C76.7246 167.278 76.2871 168.488 75.4805 169.637C74.6738 170.785 73.5938 171.701 72.2402 172.385C70.9004 173.068 69.4785 173.41 67.9746 173.41C64.9531 173.41 62.5469 172.405 60.7559 170.396C58.9785 168.372 58.0898 165.61 58.0898 162.11V161.475C58.0898 159.314 58.4863 157.394 59.2793 155.712C60.0723 154.03 61.207 152.725 62.6836 151.795C64.1738 150.865 65.9307 150.4 67.9541 150.4C70.4424 150.4 72.5068 151.146 74.1475 152.636C75.8018 154.126 76.6836 156.061 76.793 158.439H73.2041C73.0947 157.004 72.5479 155.828 71.5635 154.912C70.5928 153.982 69.3896 153.518 67.9541 153.518C66.0264 153.518 64.5293 154.215 63.4629 155.609C62.4102 156.99 61.8838 158.993 61.8838 161.618V162.336C61.8838 164.893 62.4102 166.861 63.4629 168.242C64.5156 169.623 66.0195 170.313 67.9746 170.313ZM84.8525 153.497C86.5342 151.433 88.7217 150.4 91.415 150.4C96.1045 150.4 98.4697 153.046 98.5107 158.337V173H94.7168V158.316C94.7031 156.717 94.334 155.534 93.6094 154.769C92.8984 154.003 91.7842 153.62 90.2666 153.62C89.0361 153.62 87.9561 153.948 87.0264 154.604C86.0967 155.261 85.3721 156.122 84.8525 157.188V173H81.0586V141.5H84.8525V153.497ZM113.399 173.41C110.392 173.41 107.944 172.426 106.058 170.457C104.171 168.475 103.228 165.829 103.228 162.521V161.823C103.228 159.622 103.645 157.66 104.479 155.938C105.326 154.201 106.502 152.848 108.006 151.877C109.523 150.893 111.164 150.4 112.928 150.4C115.812 150.4 118.055 151.351 119.654 153.251C121.254 155.151 122.054 157.872 122.054 161.413V162.992H107.021C107.076 165.18 107.712 166.95 108.929 168.304C110.159 169.644 111.718 170.313 113.604 170.313C114.944 170.313 116.079 170.04 117.009 169.493C117.938 168.946 118.752 168.222 119.449 167.319L121.767 169.124C119.907 171.981 117.118 173.41 113.399 173.41ZM112.928 153.518C111.396 153.518 110.111 154.078 109.072 155.199C108.033 156.307 107.391 157.865 107.145 159.875H118.26V159.588C118.15 157.66 117.631 156.17 116.701 155.117C115.771 154.051 114.514 153.518 112.928 153.518Z" fill="white"/>
</g>
<defs>
<clipPath id="clip0">
<rect width="186" height="186" fill="white"/>
</clipPath>
</defs>
</svg>
