<svg width="186" height="186" viewBox="0 0 186 186" fill="none" xmlns="http://www.w3.org/2000/svg">
<g clip-path="url(#clip0)">
<rect width="186" height="186" fill="#F99A43"/>
<rect x="29.0005" y="26.27" width="128" height="133.079" fill="#457B9D"/>
<ellipse cx="93.0001" cy="159.35" rx="64.0001" ry="17.2699" fill="#457B9D"/>
<path fill-rule="evenodd" clip-rule="evenodd" d="M96.0474 176.6C129.978 176.171 156.999 168.612 156.999 159.35V26.27H96.0474V176.6Z" fill="#1D3557"/>
<ellipse cx="93.0001" cy="26.2699" rx="64.0001" ry="17.2699" fill="#8ECAE6"/>
<ellipse cx="92.4923" cy="26.2698" rx="48.254" ry="12.1905" fill="#2A9D8F"/>
<path d="M102.642 148.471C101.539 147.367 101.54 145.58 102.642 144.478L108.632 138.488C109.734 137.386 111.521 137.385 112.625 138.488C113.728 139.592 113.727 141.379 112.625 142.481L106.635 148.471C105.533 149.573 103.746 149.574 102.642 148.471Z" fill="white" fill-opacity="0.5"/>
<path d="M94.6559 140.484C93.5524 139.381 93.5534 137.594 94.6559 136.491L100.646 130.501C101.748 129.399 103.535 129.398 104.639 130.501C105.742 131.605 105.741 133.392 104.639 134.494L98.649 140.484C97.5465 141.587 95.7594 141.588 94.6559 140.484Z" fill="white" fill-opacity="0.5"/>
<path d="M86.6701 132.498C85.5666 131.395 85.5676 129.607 86.6701 128.505L92.6597 122.515C93.7622 121.413 95.5493 121.412 96.6528 122.515C97.7563 123.619 97.7553 125.406 96.6528 126.508L90.6632 132.498C89.5607 133.601 87.7736 133.602 86.6701 132.498Z" fill="white" fill-opacity="0.5"/>
<path d="M78.6838 124.512C77.5803 123.409 77.5813 121.622 78.6838 120.519L84.6734 114.529C85.7759 113.427 87.563 113.426 88.6665 114.529C89.7699 115.633 89.7689 117.42 88.6665 118.523L82.6768 124.512C81.5744 125.615 79.7873 125.616 78.6838 124.512Z" fill="white" fill-opacity="0.5"/>
<path d="M66.7048 112.533C65.6013 111.429 65.6023 109.642 66.7048 108.54L72.6944 102.55C73.7969 101.448 75.584 101.447 76.6875 102.55C77.7909 103.654 77.7899 105.441 76.6875 106.543L70.6978 112.533C69.5954 113.635 67.8083 113.636 66.7048 112.533Z" fill="white" fill-opacity="0.5"/>
<path d="M58.7184 104.546C57.6149 103.443 57.6159 101.656 58.7184 100.553L64.7081 94.5637C65.8105 93.4612 67.5976 93.4602 68.7011 94.5637C69.8046 95.6672 69.8036 97.4543 68.7011 98.5568L62.7115 104.546C61.609 105.649 59.8219 105.65 58.7184 104.546Z" fill="white" fill-opacity="0.5"/>
<path d="M126.601 132.498C125.503 133.596 125.503 135.393 126.601 136.491C127.699 137.589 127.699 139.386 126.601 140.484L118.615 148.471C117.517 149.569 115.72 149.569 114.622 148.471L58.7188 92.5675C57.6207 91.4694 57.6207 89.6725 58.7188 88.5744L66.7049 80.5883C67.803 79.4902 69.5999 79.4902 70.698 80.5883C71.7961 81.6864 73.593 81.6864 74.6911 80.5883C75.7892 79.4902 75.7892 77.6933 74.6911 76.5952C73.593 75.4971 73.593 73.7002 74.6911 72.6021L80.6807 66.6125C81.7788 65.5144 83.5757 65.5144 84.6738 66.6125L140.577 122.516C141.675 123.614 141.675 125.411 140.577 126.509L134.587 132.498C133.489 133.596 131.692 133.596 130.594 132.498C129.496 131.4 127.699 131.4 126.601 132.498Z" fill="#8ECAE6"/>
<path d="M96.6526 94.5641L86.6699 104.547C85.5718 105.645 83.7749 105.645 82.6768 104.547L74.6907 96.5607C73.5926 95.4626 73.5926 93.6657 74.6907 92.5676L84.6734 82.5849C85.7715 81.4868 87.5684 81.4868 88.6665 82.5849L96.6526 90.5711C97.7507 91.6692 97.7507 93.4661 96.6526 94.5641Z" fill="white" fill-opacity="0.5"/>
<path d="M124.604 122.516L114.622 132.498C113.524 133.596 111.727 133.596 110.629 132.498L88.6668 110.536C87.5687 109.438 87.5687 107.641 88.6668 106.543L98.6495 96.5605C99.7476 95.4624 101.544 95.4624 102.643 96.5605L124.604 118.522C125.703 119.621 125.703 121.417 124.604 122.516Z" fill="white" fill-opacity="0.5"/>
</g>
<defs>
<clipPath id="clip0">
<rect width="186" height="186" fill="white"/>
</clipPath>
</defs>
</svg>
